<svg
        width="512"
        height="512"
        xmlns="http://www.w3.org/2000/svg">
    <path stroke-width="15" stroke="black" d="M0 120H 512M0 200H512M0 280H512M0 360H512M0 440H512"/>
    <path fill="#f24405"
          d="M 54.56818,472.26442 C 19.13205,466.63637 -5.74306,432.42726 1.15058,398.80266 9.2274,359.40699 54.6158,336.83912 91.49249,353.88318 c 4.10634,1.89791 9.94816,5.4833 10.74925,6.59729 2.23878,3.11323 2.34143,-3.87207 2.34143,-159.32714 0,-137.12003 0.16184,-159.14679 1.17933,-160.51702 2.34929,-3.16372 1.48115,-4.45574 28.06959,41.77469 5.17606,8.99984 12.55207,21.70188 16.39111,28.22677 9.2065,15.64744 18.96372,32.34477 26.43267,45.23367 3.33429,5.75386 7.30216,12.56511 8.8175,15.1361 1.51534,2.57098 5.86184,9.95178 9.65887,16.40174 8.26493,14.03949 9.21445,11.17667 -7.39123,22.28479 -15.02914,10.05353 -15.03,10.05376 -17.97454,4.78174 -0.8584,-1.53692 -4.69421,-8.13294 -8.52401,-14.65782 -3.8298,-6.52488 -9.55233,-16.28153 -12.71673,-21.68143 -6.34768,-10.83202 -7.81826,-12.85536 -8.87069,-12.20493 -0.39404,0.24354 -0.71512,51.01069 -0.72299,114.31958 -0.0146,116.93561 -0.1904,124.11747 -3.31864,135.54807 -10.04157,36.69186 -46.33499,61.97789 -81.04523,56.46514 z m 384.23658,-0.0389 c -32.92374,-5.14594 -58.78507,-33.80864 -61.6293,-68.30519 -0.36963,-4.48319 -0.64492,-59.63891 -0.61176,-122.56828 0.0647,-122.74828 0.21421,-117.80267 -3.40141,-112.50936 -3.00555,4.40015 -10.85623,17.07498 -10.85623,17.52724 0,0.3527 -7.31795,12.34128 -22.9417,37.58405 -5.29184,8.54984 -13.83004,22.5405 -18.97377,31.09035 -5.14374,8.54984 -12.59398,20.69962 -16.55611,26.99952 -3.96212,6.29988 -13.26881,21.57916 -20.68151,33.95394 -28.9548,48.33711 -27.75775,47.14347 -34.66876,34.57024 -3.86334,-7.02858 -32.83425,-57.70755 -38.39842,-67.17054 -4.35958,-7.41438 -4.64621,-6.86983 8.03348,-15.26249 19.78658,-13.0967 17.4156,-13.54541 28.04598,5.30767 4.59597,8.15101 8.9584,15.56356 9.69432,16.47238 1.28738,1.58984 1.81714,0.85287 13.99776,-19.47276 6.96286,-11.61882 19.32953,-31.80221 27.48149,-44.85198 8.15195,-13.04977 15.62561,-25.19955 16.6081,-26.99952 0.9825,-1.79997 4.70498,-8.04092 8.27219,-13.86879 7.80164,-12.74581 7.75288,-12.92631 -1.39304,-5.15618 -14.99986,12.7435 -55.3223,41.018 -81.65428,57.25683 -51.52291,31.77397 -73.79466,50.3067 -82.16992,68.37511 -3.44591,7.43403 -3.73771,5.71423 -3.73771,-22.02906 0,-29.95094 -1.46524,-25.4945 12.66251,-38.5123 13.46645,-12.40846 23.84675,-19.54519 86.33581,-59.35814 49.71537,-31.6746 92.94868,-68.02839 121.33587,-102.02824 10.23008,-12.25275 14.02895,-17.24507 26.17928,-34.40383 12.69514,-17.92811 11.61851,-32.14846 11.61851,153.45962 0,87.26914 0.29664,158.67117 0.65921,158.67117 0.36257,0 1.92732,-0.96432 3.47722,-2.14295 28.61541,-21.76061 73.36961,-8.68388 90.49596,26.44203 21.39111,43.87285 -17.87042,94.64333 -67.22377,86.92946 z"/>
</svg>
